<svg width="180" height="180" viewBox="0 0 100 100" fill="none" xmlns="http://www.w3.org/2000/svg">
  <style>
    @media (prefers-color-scheme: light) {
      .background { fill: #0a0a0a; }
      .cube { fill: #4fd1c7; }
    }
    @media (prefers-color-scheme: dark) {
      .background { fill: #1a1a1a; }
      .cube { fill: #4fd1c7; }
    }
  </style>
  
  <!-- Background with rounded corners -->
  <rect class="background" width="100" height="100" rx="20" />
  
  <!-- 3D Cube - Clean version (decorative elements removed) -->
  <path class="cube" 
        d="M94.92,5.62 A1,1,0,0,0,94,5 H30 a1,1,0,0,0-.71.29 l-24,24 a1,1,0,0,0,0,1.41 V94 a1,1,0,0,0,1,1 H70 l.01,0 a1,1,0,0,0,.7-.29 l24-24 a1,1,0,0,0,0-1.41 V6 a1,1,0,0,0-.08-.38 Z M29.07,8.34 a1,1,0,0,0,1.93-.34 V7 H91.59 l-22,22 H8.41 Z M8.3,93 a1,1,0,0,0-1.3-1.3 V31 H29 v1 a1,1,0,0,0,2,0 V31 H69 V69 H68 a1,1,0,0,0,0,2 h1 V93 Z M71,30.41 L93,8.41 V69 H92 a1,1,0,0,0-.34,1.93 L71,91.59 Z" 
        fill-rule="evenodd" />
</svg>
